# xmcd
#
# Track frame offsets:
#	150
#	10997
#	25692
#	37683
#	56850
#	84051
#	97238
#	110815
#	126732
#	144209
#	158852
#	170453
#	191726
#	204367
#	223209
#	243520
#	254343
#	265866
#
# Disc length: 3736
#
# Revision: 1
# Processed by: cddbd v1.5.1PL0 Copyright (c) Steve Scherf et al.
# Submitted via: CDex 1.50Beta7
# Normalized: r0:TDELIM( - )
#
DISCID=020e9612
DTITLE=Jazz Master Files - CD3
DYEAR=2002
DGENRE=Jazz
TTITLE0=Frank Sinatra - Night And Day
TTITLE1=Art Taturn - Just One Of Those Things
TTITLE2=Benny Carter - Some Of These Days
TTITLE3=Dave Brubeck - Out Of Nowhere
TTITLE4=Claude Thornhill - La Paloma
TTITLE5=Glenn Miller - Pennsylvania 6-5000
TTITLE6=Jack Teagarden - Aunt Hager's Blues
TTITLE7=Vic Damone - Whe Have All The Time In The World
TTITLE8=Count Basie - One O'Clock Jump
TTITLE9=Harry James - Down South Camp Meeting
TTITLE10=Pee Wee Hunt - Basin Street Blues
TTITLE11=Stan Getz - Stan's Blues
TTITLE12=Dinah Washington - Mad About The Boy
TTITLE13=Cab Calloway - Cruisin' With Cab
TTITLE14=Oscar Peterson - On A Clear Day You Can See Forever
TTITLE15=Dizzy Gillespie - Pennies From Heaven
TTITLE16=Fats Waller - Lulu's Back In Town
TTITLE17=Kid Ory - Millenberg Joys
EXTD=YEAR: 2002
EXTT0=
EXTT1=
EXTT2=
EXTT3=
EXTT4=
EXTT5=
EXTT6=
EXTT7=
EXTT8=
EXTT9=
EXTT10=
EXTT11=
EXTT12=
EXTT13=
EXTT14=
EXTT15=
EXTT16=
EXTT17=
PLAYORDER=
